HIERARCHY
ROOT ui
{
	 OFFSET 0 0 0
	 CHANNELS 3 XPosition YPosition Z Position
	 EndSite
	 {
	 OFFSET 0 -1 0
	 }
}
ROOT li
{
	 OFFSET 0 0 0
	 CHANNELS 3 XPosition YPosition Z Position
	 EndSite
	 {
	 OFFSET 0 -1 0
	 }
}
ROOT ul
{
	 OFFSET 0 0 0
	 CHANNELS 3 XPosition YPosition Z Position
	 EndSite
	 {
	 OFFSET 0 -1 0
	 }
}
ROOT ll
{
	 OFFSET 0 0 0
	 CHANNELS 3 XPosition YPosition Z Position
	 EndSite
	 {
	 OFFSET 0 -1 0
	 }
}
ROOT tt
{
	 OFFSET 0 0 0
	 CHANNELS 3 XPosition YPosition Z Position
	 EndSite
	 {
	 OFFSET 0 -1 0
	 }
}
ROOT tb
{
	 OFFSET 0 0 0
	 CHANNELS 3 XPosition YPosition Z Position
	 EndSite
	 {
	 OFFSET 0 -1 0
	 }
}
ROOT td
{
	 OFFSET 0 0 0
	 CHANNELS 3 XPosition YPosition Z Position
	 EndSite
	 {
	 OFFSET 0 -1 0
	 }
}
ROOT v
{
	 OFFSET 0 0 0
	 CHANNELS 3 XPosition YPosition Z Position
	 EndSite
	 {
	 OFFSET 0 -1 0
	 }
}
ROOT bn
{
	 OFFSET 0 0 0
	 CHANNELS 3 XPosition YPosition Z Position
	 EndSite
	 {
	 OFFSET 0 -1 0
	 }
}
MOTION
Frames: 18
Frame Time: 0.002
-0.00434237813949585	-0.001085787057876587	0		0.47821429443359376	-2.4773193359375	0		-1.0462491455078125	-0.07614699554443359	0		-0.5987777099609375	-2.64663037109375	0		1.4326142578125	-0.608894775390625	0		2.990478759765625	0.09395043182373047	0		4.4189306640625	0.18949960327148438	0		5.60106494140625	0.04641812515258789	0		-0.18004917907714843	5.9142216796875	0		
-0.015211836814880371	0.0063652582168579105	0		0.5020343322753906	-2.484634765625	0		-1.0483409423828125	-0.07889450836181641	0		-0.5690468139648438	-2.658079833984375	0		1.40948486328125	-0.6131726684570312	0		2.99245166015625	0.09412454986572266	0		4.4215947265625	0.1756588134765625	0		5.59886279296875	0.03868910217285156	0		-0.16385244750976563	5.92507666015625	0		
-0.03255852890014648	-0.006061890125274658	0		0.452120361328125	-2.47733837890625	0		-1.0504927978515626	-0.08265682983398437	0		-0.6081612548828125	-2.660026123046875	0		1.4255281982421875	-0.60832763671875	0		3.000230712890625	0.0871526870727539	0		4.41255419921875	0.17706301879882813	0		5.59080029296875	0.03907444381713867	0		-0.17617095947265626	5.91453857421875	0		
0.034508777618408204	0.0016402089595794677	0		0.5058663635253906	-2.48434521484375	0		-1.04045556640625	-0.07570120239257813	0		-0.59755859375	-2.673086669921875	0		1.4133077392578124	-0.6128785400390625	0		3.008157958984375	0.08916331481933594	0		4.4144384765625	0.17720970153808593	0		5.593640625	0.037202411651611325	0		-0.16006146240234376	5.92536279296875	0		
-0.03556080627441406	0.00734597110748291	0		0.45992877197265625	-2.473168212890625	0		-1.0386304931640624	-0.07558263397216797	0		-0.5859723510742187	-2.6841845703125	0		1.4181993408203124	-0.6098212280273437	0		3.003940185546875	0.08742372131347656	0		4.424525390625	0.18916156005859375	0		5.60385986328125	0.0551555061340332	0		-0.1582500762939453	5.9254833984375	0		
0.005031943798065186	-4.057799875736237E-4	0		0.5135672607421875	-2.479205810546875	0		-1.0368740234375	-0.07547917938232422	0		-0.5882978515625	-2.6879912109375	0		1.4199569091796875	-0.6097129516601563	0		3.020692626953125	0.08720471954345703	0		4.428994140625	0.17621275329589844	0		5.60044140625	0.04738395690917969	0		-0.1565052490234375	5.9255888671875	0		
-0.025411272048950197	-0.005610549926757812	0		0.46133071899414063	-2.474927734375	0		-1.0351927490234376	-0.07539139556884765	0		-0.5706611938476562	-2.6902548828125	0		1.438546630859375	-0.6139954223632812	0		3.007377197265625	0.08762799835205078	0		4.41969970703125	0.17754949951171875	0		5.6121201171875	0.047260009765625	0		-0.16907049560546875	5.91498876953125	0		
-0.008592589378356934	0.004128376007080078	0		0.512744873046875	-2.483955078125	0		-1.033590576171875	-0.07531986236572266	0		-0.6091151123046875	-2.692301513671875	0		1.41708837890625	-0.6164163818359375	0		3.000025634765625	0.0898977279663086	0		4.43227734375	0.1763797149658203	0		5.59474853515625	0.04875050735473633	0		-0.15420802307128906	5.92677099609375	0		
-0.022286373138427733	-0.005485446929931641	0		0.4722079162597656	-2.485976806640625	0		-1.0320679931640624	-0.07526486206054687	0		-0.564959228515625	-2.7091904296875	0		1.4385833740234375	-0.6178053588867187	0		3.006393310546875	0.08283809661865234	0		4.4228251953125	0.17766830444335938	0		5.60202783203125	0.03766582870483398	0		-0.283173095703125	5.905693359375	0		
0.06124979019165039	-0.002257991075515747	0		0.5306533813476563	-2.486199462890625	0		-1.0224700317382813	-0.06840447998046875	0		-0.5964046020507813	-2.703427978515625	0		1.434138671875	-0.6126447143554687	0		3.035163330078125	0.09726397705078126	0		4.4325341796875	0.18950845336914063	0		5.61764697265625	0.04537069320678711	0		-0.14732058715820312	5.92177294921875	0		
-0.009251679420471191	0.004342625141143799	0		0.5320110473632812	-2.486186279296875	0		-1.02516455078125	-0.07129423522949219	0		-0.5313500366210937	-2.717815673828125	0		1.444482177734375	-0.6138345336914063	0		3.0074755859375	0.09490333557128906	0		4.44075	0.18234820556640624	0		5.608064453125	0.047598487854003904	0		-0.14882920837402344	5.92585498046875	0		
0.00781800413131714	-0.006010046005249023	0		0.5281347045898438	-2.493080810546875	0		-1.0238711547851562	-0.07128970336914063	0		-0.6060785522460937	-2.717139404296875	0		1.4457718505859376	-0.6138470458984375	0		3.008770263671875	0.09487995910644531	0		4.43309130859375	0.18451275634765624	0		5.61513720703125	0.03742731094360351	0		-0.1474942626953125	5.925853515625	0		
-0.016963605880737306	-0.005457403182983399	0		0.5195269165039063	-2.483887451171875	0		-1.02265966796875	-0.07130167388916016	0		-0.5540116577148437	-2.723278076171875	0		1.443891357421875	-0.6178124389648437	0		3.011718017578125	0.08279325866699219	0		4.43912744140625	0.17634710693359376	0		5.60639599609375	0.039580085754394534	0		-0.16047195434570313	5.9151455078125	0		
0.010155325889587402	-0.006067799091339111	0		0.4785722961425781	-2.48600244140625	0		-1.0964947509765626	-0.06867496490478515	0		-0.61300830078125	-2.7269853515625	0		1.42503759765625	-0.6164226684570312	0		3.02710546875	0.0944153594970703	0		4.4443857421875	0.18217744445800782	0		5.6084775390625	0.03746725463867188	0		-0.14505030822753906	5.92579833984375	0		
-0.00765142822265625	0.0012984340190887451	0		0.5095937805175781	-2.48572119140625	0		-1.0123490600585938	-0.06454706573486328	0		-0.565280517578125	-2.74006396484375	0		1.429152587890625	-0.6125568237304687	0		3.01798876953125	0.08755303192138672	0		4.44129052734375	0.17616679382324218	0		5.618509765625	0.0371553955078125	0		-0.14395054626464843	5.92574853515625	0		
0.008482828140258789	0.009903079986572265	0		0.4747752685546875	-2.472997802734375	0		-1.0114107055664063	-0.0645963363647461	0		-0.5792619018554688	-2.734788818359375	0		1.4500570068359375	-0.6140783081054687	0		3.03392529296875	0.08712162780761719	0		4.44223193359375	0.176048583984375	0		5.62366943359375	0.04693155670166015	0		-0.15717591857910157	5.91500048828125	0		
-0.005872108936309814	0.0011666350364685058	0		0.5233468017578125	-2.484132568359375	0		-1.014658935546875	-0.0685622329711914	0		-0.5825488891601562	-2.738760986328125	0		1.42782763671875	-0.6166603393554687	0		3.0347666015625	0.08700765228271484	0		4.44307470703125	0.17591416931152343	0		5.62451025390625	0.04677999496459961	0		-0.14201033020019532	5.92562060546875	0		
-0.012288082122802734	-0.005752495765686035	0		0.4721875915527344	-2.47706884765625	0		-1.0179884033203126	-0.07153173828125	0		-0.5869892578125	-2.744715087890625	0		1.44852734375	-0.6182020263671875	0		3.0146650390625	0.0943436279296875	0		4.43899267578125	0.18387248229980468	0		5.61525048828125	0.04683099365234375	0		-0.15541361999511719	5.914859375	0		
